<mxfile host="app.diagrams.net" agent="Mozilla/5.0 (Macintosh; Intel Mac OS X 10.15; rv:135.0) Gecko/20100101 Firefox/135.0" version="26.0.11">
  <diagram name="Page-1" id="k8v3WqiMYmdInb85D0os">
    <mxGraphModel dx="1050" dy="595" grid="1" gridSize="10" guides="1" tooltips="1" connect="1" arrows="1" fold="1" page="1" pageScale="1" pageWidth="850" pageHeight="1100" math="0" shadow="0">
      <root>
        <mxCell id="0" />
        <mxCell id="1" parent="0" />
        <mxCell id="xR6xEcUs1_AtSRQ57CVi-7" value="&lt;div&gt;&lt;br&gt;&lt;/div&gt;&lt;div&gt;&lt;br&gt;&lt;/div&gt;&lt;div&gt;&lt;br&gt;&lt;/div&gt;&lt;div&gt;User&lt;/div&gt;" style="rounded=1;whiteSpace=wrap;html=1;" vertex="1" parent="1">
          <mxGeometry x="320" y="42" width="120" height="75" as="geometry" />
        </mxCell>
        <mxCell id="xR6xEcUs1_AtSRQ57CVi-1" value="" style="html=1;verticalLabelPosition=bottom;align=center;labelBackgroundColor=#ffffff;verticalAlign=top;strokeWidth=2;strokeColor=#0080F0;shadow=0;dashed=0;shape=mxgraph.ios7.icons.smartphone;" vertex="1" parent="1">
          <mxGeometry x="350" y="57" width="18" height="30" as="geometry" />
        </mxCell>
        <mxCell id="xR6xEcUs1_AtSRQ57CVi-6" value="" style="pointerEvents=1;shadow=0;dashed=0;html=1;strokeColor=none;fillColor=#4495D1;labelPosition=center;verticalLabelPosition=bottom;verticalAlign=top;align=center;outlineConnect=0;shape=mxgraph.veeam.laptop;" vertex="1" parent="1">
          <mxGeometry x="380" y="57" width="40" height="30" as="geometry" />
        </mxCell>
        <mxCell id="xR6xEcUs1_AtSRQ57CVi-8" value="" style="points=[];aspect=fixed;html=1;align=center;shadow=0;dashed=0;fillColor=#FF6A00;strokeColor=none;shape=mxgraph.alibaba_cloud.dns_domain_name_system;" vertex="1" parent="1">
          <mxGeometry x="600" y="52.05" width="55.800000000000004" height="54.900000000000006" as="geometry" />
        </mxCell>
        <mxCell id="xR6xEcUs1_AtSRQ57CVi-9" value="www.mysite.com" style="endArrow=classic;html=1;rounded=0;exitX=1;exitY=0.25;exitDx=0;exitDy=0;" edge="1" parent="1" source="xR6xEcUs1_AtSRQ57CVi-7">
          <mxGeometry width="50" height="50" relative="1" as="geometry">
            <mxPoint x="370" y="287" as="sourcePoint" />
            <mxPoint x="600" y="59" as="targetPoint" />
          </mxGeometry>
        </mxCell>
        <mxCell id="xR6xEcUs1_AtSRQ57CVi-11" value="IP address" style="endArrow=classic;html=1;rounded=0;entryX=1;entryY=0.75;entryDx=0;entryDy=0;" edge="1" parent="1" target="xR6xEcUs1_AtSRQ57CVi-7">
          <mxGeometry width="50" height="50" relative="1" as="geometry">
            <mxPoint x="600" y="98" as="sourcePoint" />
            <mxPoint x="420" y="237" as="targetPoint" />
          </mxGeometry>
        </mxCell>
        <mxCell id="xR6xEcUs1_AtSRQ57CVi-12" value="Load Balancer" style="verticalLabelPosition=bottom;html=1;verticalAlign=top;align=center;strokeColor=none;fillColor=#00BEF2;shape=mxgraph.azure.azure_load_balancer;" vertex="1" parent="1">
          <mxGeometry x="355" y="167" width="50" height="35" as="geometry" />
        </mxCell>
        <mxCell id="xR6xEcUs1_AtSRQ57CVi-13" value="" style="endArrow=classic;html=1;rounded=0;exitX=0.5;exitY=1;exitDx=0;exitDy=0;entryX=0.5;entryY=0;entryDx=0;entryDy=0;entryPerimeter=0;" edge="1" parent="1" source="xR6xEcUs1_AtSRQ57CVi-7" target="xR6xEcUs1_AtSRQ57CVi-12">
          <mxGeometry width="50" height="50" relative="1" as="geometry">
            <mxPoint x="380" y="137" as="sourcePoint" />
            <mxPoint x="380" y="197" as="targetPoint" />
          </mxGeometry>
        </mxCell>
      </root>
    </mxGraphModel>
  </diagram>
</mxfile>
